<?xml version="1.0" encoding="UTF-8" standalone="no"?>
<svg width="24px" height="48px" viewBox="0 0 24 48" version="1.1" xmlns="http://www.w3.org/2000/svg" xmlns:xlink="http://www.w3.org/1999/xlink">
    <!-- Generator: Sketch 3.6.1 (26313) - http://www.bohemiancoding.com/sketch -->
    <title>Slice 1</title>
    <desc>Created with Sketch.</desc>
    <defs></defs>
    <g id="Page-1" stroke="none" stroke-width="1" fill="none" fill-rule="evenodd">
        <g id="rocket" fill="#FFFFFF">
            <g id="Page-1">
                <g>
                    <g id="rocket">
                        <path d="M16.13,15.33 C16.13,14.86 16.06,14.39 15.91,13.95 C15.78,13.57 15.37,13.36 14.98,13.48 C14.6,13.61 14.39,14.03 14.52,14.41 C14.61,14.7 14.66,15.01 14.66,15.33 C14.66,16.94 13.35,18.26 11.73,18.26 C10.11,18.26 8.8,16.94 8.8,15.33 C8.8,13.71 10.11,12.39 11.73,12.39 C12.08,12.39 12.42,12.45 12.74,12.57 C13.12,12.71 13.54,12.51 13.68,12.13 C13.82,11.75 13.62,11.33 13.24,11.19 C12.76,11.02 12.25,10.93 11.73,10.93 C9.3,10.93 7.33,12.9 7.33,15.33 C7.33,17.75 9.3,19.73 11.73,19.73 C14.16,19.73 16.13,17.75 16.13,15.33 L16.13,15.33 L16.13,15.33 L16.13,15.33 Z" id="Shape"></path>
                        <path d="M21.52,31.62 C20.93,31 20.34,30.53 19.99,30.27 C20.82,27.52 21.26,24.58 21.26,21.56 C21.26,13.18 17.87,5.43 12.19,0.82 C11.92,0.6 11.54,0.6 11.27,0.82 C5.59,5.43 2.2,13.18 2.2,21.56 C2.2,24.58 2.64,27.52 3.47,30.27 C3.12,30.53 2.53,31 1.94,31.62 C0.65,32.98 0,34.34 0,35.68 L0,46.86 C0,47.16 0.18,47.43 0.45,47.54 C0.54,47.58 0.64,47.6 0.73,47.6 C0.92,47.6 1.11,47.52 1.25,47.38 L8.75,39.88 C9.45,40.67 10.2,41.4 11,42.07 L11,46.77 C11,47.18 11.33,47.51 11.73,47.51 C12.14,47.51 12.46,47.18 12.46,46.77 L12.46,42.07 C13.26,41.4 14.01,40.67 14.71,39.88 L22.21,47.38 C22.35,47.52 22.54,47.6 22.73,47.6 C22.82,47.6 22.92,47.58 23.01,47.54 C23.28,47.43 23.46,47.16 23.46,46.86 L23.46,35.68 C23.46,34.34 22.81,32.98 21.52,31.62 L21.52,31.62 L21.52,31.62 L21.52,31.62 Z M1.47,45.09 L1.47,35.68 C1.47,34.51 2.29,33.39 2.99,32.65 C3.33,32.29 3.68,31.98 3.97,31.74 C4.9,34.32 6.2,36.7 7.8,38.75 L1.47,45.09 L1.47,45.09 L1.47,45.09 L1.47,45.09 Z M12.46,40.1 L12.46,30.73 C12.46,30.32 12.14,30 11.73,30 C11.33,30 11,30.32 11,30.73 L11,40.1 C10.45,39.58 9.93,39.03 9.44,38.44 C9.41,38.38 9.37,38.33 9.32,38.28 C9.3,38.26 9.28,38.25 9.27,38.23 C5.71,33.89 3.67,27.92 3.67,21.56 C3.67,13.85 6.67,6.72 11.73,2.35 C16.79,6.72 19.79,13.85 19.79,21.56 C19.79,27.92 17.75,33.89 14.19,38.23 C14.18,38.25 14.16,38.26 14.14,38.28 C14.09,38.33 14.05,38.38 14.02,38.44 C13.53,39.03 13.01,39.58 12.46,40.1 L12.46,40.1 L12.46,40.1 L12.46,40.1 Z M21.99,45.09 L15.66,38.75 C17.26,36.69 18.56,34.32 19.5,31.74 C20.53,32.59 21.99,34.13 21.99,35.68 L21.99,45.09 L21.99,45.09 L21.99,45.09 L21.99,45.09 Z" id="Shape"></path>
                    </g>
                </g>
            </g>
        </g>
    </g>
</svg>